<?xml version="1.0" encoding="UTF-8"?>
<!-- Generator: visioncortex VTracer 0.6.4 -->
<svg version="1.1" xmlns="http://www.w3.org/2000/svg" width="1238" height="481">
<path d="M0 0 C1.30163086 0.0105542 2.60326172 0.0211084 3.94433594 0.03198242 C10.51337911 0.33588981 15.76425833 0.6900757 20.60644531 5.42114258 C22.4757065 7.70663203 24.12850409 10.05249612 25.66601562 12.57275391 C27.29262599 15.18339027 29.26751999 17.46610321 31.25 19.8125 C32.31734375 21.1428125 32.31734375 21.1428125 33.40625 22.5 C36.08208171 25.71099805 38.89358276 28.76279137 41.75 31.8125 C46.18832674 36.55116464 50.3414225 41.43369326 54.40625 46.5 C57.08208171 49.71099805 59.89358276 52.76279137 62.75 55.8125 C67.18832674 60.55116464 71.3414225 65.43369326 75.40625 70.5 C78.08208171 73.71099805 80.89358276 76.76279137 83.75 79.8125 C88.18832674 84.55116464 92.3414225 89.43369326 96.40625 94.5 C99.08208171 97.71099805 101.89358276 100.76279137 104.75 103.8125 C109.18832674 108.55116464 113.3414225 113.43369326 117.40625 118.5 C120.5610622 122.28577464 123.92013802 125.85983434 127.28881836 129.45458984 C131.37278912 133.83837983 135.17562494 138.38302367 138.91015625 143.0703125 C140.4437906 144.93932761 142.00235051 146.64651638 143.75 148.3125 C148.10449695 146.73373689 150.52856179 143.33797535 153.375 139.875 C154.44518365 138.59775801 155.51681781 137.32173008 156.58984375 136.046875 C157.12206543 135.41330078 157.65428711 134.77972656 158.20263672 134.12695312 C160.386321 131.56634385 162.65436049 129.09750789 164.9375 126.625 C168.14645044 123.12990111 171.21065837 119.5696616 174.1875 115.875 C177.84635769 111.3385327 181.69868963 107.053839 185.66601562 102.79101562 C188.6370119 99.57968772 191.44953832 96.28631211 194.1875 92.875 C198.03110057 88.09628372 202.11960164 83.62092313 206.30834961 79.14868164 C209.42553945 75.80150673 212.38573798 72.38244977 215.25 68.8125 C218.59301959 64.6458379 222.10115137 60.70830188 225.75 56.8125 C230.20874444 52.05161006 234.3879783 47.1478218 238.47265625 42.05859375 C241.41077451 38.51571701 244.53231178 35.15808228 247.66650391 31.79052734 C250.63730066 28.57933127 253.44968321 25.28613159 256.1875 21.875 C260.19401004 16.88685865 264.46480092 12.2014543 268.85327148 7.55102539 C271.62424993 4.66794949 271.62424993 4.66794949 273.75 1.3125 C277.87536512 1.11313291 281.99882865 0.96884968 286.12792969 0.87304688 C287.52881763 0.83307676 288.92937735 0.77867473 290.32910156 0.70898438 C292.35564167 0.61069284 294.37774298 0.56632973 296.40625 0.53125 C298.22866211 0.4684082 298.22866211 0.4684082 300.08789062 0.40429688 C305.56363161 1.76228064 308.65867268 4.62079846 311.75 9.3125 C312.90597524 13.99743302 312.82673654 18.54944916 312.75914001 23.35620117 C312.76764963 24.78460916 312.7796486 26.21299988 312.79481989 27.64135265 C312.82620767 31.55331553 312.80787629 35.46368806 312.7811383 39.37562704 C312.76095304 43.59935759 312.78690019 47.8228428 312.80690002 52.04653931 C312.83860365 60.31546532 312.82723054 68.58379504 312.80057388 76.85271764 C312.77976494 83.57351853 312.77496326 90.2941557 312.7815876 97.01498413 C312.78252474 97.97186542 312.78346188 98.9287467 312.78442742 99.91462439 C312.78641295 101.85856831 312.78844095 103.80251219 312.79051096 105.74645603 C312.8081471 123.97085542 312.77753598 142.19492715 312.72989214 160.41925704 C312.69006404 176.05339502 312.68924498 191.68713073 312.7175293 207.32128906 C312.75035194 225.48084719 312.76069666 243.64017618 312.73398215 261.79975224 C312.73118214 263.73650675 312.7284043 265.67326129 312.72564888 267.61001587 C312.72427396 268.56291242 312.72289905 269.51580898 312.72148247 270.49758118 C312.7132894 277.20956418 312.72096242 283.92142187 312.73463249 290.63339233 C312.75078533 298.81423044 312.74173699 306.99458415 312.70061522 315.17534232 C312.68024384 319.34869215 312.67098778 323.52126573 312.69210434 327.69462967 C312.71111394 331.51703218 312.6976697 335.33791088 312.6585905 339.16014826 C312.6460759 341.19383832 312.66781668 343.22765064 312.69086593 345.26124859 C312.59577813 351.38974948 312.36081199 355.38299978 308.25652409 360.12773132 C307.11690383 361.22063031 305.95452372 362.29157634 304.75 363.3125 C304.42 363.6425 304.09 363.9725 303.75 364.3125 C299.44386111 364.65208921 295.13202382 364.7122248 290.81445312 364.77246094 C289.36522178 364.79896338 287.91617521 364.83977483 286.46777344 364.89550781 C284.37097556 364.97523032 282.27778501 365.00786311 280.1796875 365.03125 C278.92397949 365.06154297 277.66827148 365.09183594 276.37451172 365.12304688 C271.30808579 363.99004579 268.62467701 361.61337064 265.75 357.3125 C264.75554843 353.50515214 264.80933785 349.83522558 264.87025452 345.91676331 C264.86018999 344.77555478 264.85012546 343.63434625 264.83975595 342.45855564 C264.81453125 338.63780755 264.83913536 334.81902045 264.86352539 330.99829102 C264.85952276 328.25833859 264.84498366 325.51846573 264.83087158 322.77854919 C264.80600654 316.88153086 264.80663061 310.98496015 264.82469368 305.08792305 C264.85077233 296.56195361 264.83821342 288.03638325 264.81630235 279.51041805 C264.78179704 265.67689907 264.77842708 251.84355538 264.79467773 238.01000977 C264.81039451 224.57409309 264.81142257 211.13830735 264.79272461 197.70239258 C264.79100271 196.45957402 264.79100271 196.45957402 264.78924603 195.19164801 C264.78339652 191.03497027 264.77725854 186.87829302 264.77097714 182.72161591 C264.7192609 148.25186476 264.71809134 113.78227288 264.75 79.3125 C263.80398926 80.08722656 262.85797852 80.86195313 261.88330078 81.66015625 C261.35116974 82.09593994 260.8190387 82.53172363 260.27078247 82.98071289 C258.09972379 84.88196308 256.39370084 87.03746519 254.625 89.3125 C251.15984315 93.65269646 247.55021226 97.76374306 243.75 101.8125 C240.10069808 105.70783513 236.5929765 109.64589161 233.25 113.8125 C229.43005989 118.57358478 225.36061181 123.02523025 221.19140625 127.4765625 C218.07431446 130.82366869 215.11418887 134.24264141 212.25 137.8125 C208.43005989 142.57358478 204.36061181 147.02523025 200.19140625 151.4765625 C197.07431446 154.82366869 194.11418887 158.24264141 191.25 161.8125 C187.43005989 166.57358478 183.36061181 171.02523025 179.19140625 175.4765625 C175.29931408 179.6558574 171.6930981 184.01193723 168.12109375 188.46875 C164.80516082 192.44568439 161.2857313 196.21960492 157.734375 199.98632812 C155.51385756 202.35038825 153.55437049 204.60594426 151.75 207.3125 C146.88972718 208.59786141 142.62201582 208.49677461 137.75 207.3125 C132.78870507 204.04278407 129.30900653 198.97944983 125.75 194.3125 C124.23362298 192.4546871 122.71312499 190.60022605 121.1875 188.75 C120.47464844 187.86183594 119.76179687 186.97367188 119.02734375 186.05859375 C116.5317361 183.04931042 113.91236519 180.17309714 111.25 177.3125 C107.79838064 173.60388312 104.48477852 169.82744105 101.3125 165.875 C97.94653735 161.69012693 94.41823983 157.72935602 90.75 153.8125 C86.29127805 149.05158666 82.11202376 144.14782437 78.02734375 139.05859375 C75.5317361 136.04931042 72.91236519 133.17309714 70.25 130.3125 C66.79838064 126.60388312 63.48477852 122.82744105 60.3125 118.875 C56.94653338 114.69012201 53.41820359 110.72939536 49.75 106.8125 C45.26259074 102.02009376 41.04277496 97.08676777 36.92578125 91.96875 C33.36092311 87.61667902 29.67166897 83.3479674 25.75 79.3125 C25.42 79.3125 25.09 79.3125 24.75 79.3125 C24.75054207 79.89808152 24.75108415 80.48366305 24.75164264 81.08698946 C24.78288179 115.7919728 24.77771978 150.49675513 24.72527504 185.20171383 C24.71900969 189.36860638 24.71304853 193.53549932 24.70727539 197.70239258 C24.70554373 198.94672468 24.70554373 198.94672468 24.70377708 200.2161948 C24.68580897 213.64894836 24.69248434 227.0815824 24.70826416 240.51433385 C24.72390685 254.29720889 24.71307324 268.07987966 24.67765242 281.862719 C24.65662963 290.36786036 24.65626797 298.8724877 24.68231983 307.37761729 C24.69820555 313.20962692 24.68837762 319.04123982 24.65833985 324.87319232 C24.64176528 328.23859606 24.64032971 331.6021973 24.66181374 334.96769714 C24.68333546 338.61832484 24.66193984 342.26627161 24.62974548 345.91676331 C24.64624443 346.97805704 24.66274337 348.03935078 24.67974228 349.13280493 C24.58587654 354.42571127 24.1485867 357.55467324 20.41460514 361.46713161 C16.95276216 364.55558632 14.25745557 365.22211088 9.56640625 365.27734375 C8.90720688 365.28641251 8.24800751 365.29548126 7.5688324 365.30482483 C6.18480939 365.31390499 4.80056794 365.305419 3.41674805 365.2800293 C1.31710639 365.25006574 -0.77027698 365.30009738 -2.86914062 365.35742188 C-4.22397061 365.35639022 -5.57880674 365.35068386 -6.93359375 365.33984375 C-8.14587646 365.33718506 -9.35815918 365.33452637 -10.60717773 365.33178711 C-16.01734072 363.81798572 -19.16236899 360.99276361 -22.25 356.3125 C-23.40365521 351.6353365 -23.33305761 347.01816163 -23.26586914 342.23083496 C-23.2750955 340.79830058 -23.287807 339.36578515 -23.3036871 337.93330908 C-23.33701093 334.00996384 -23.32061395 330.08817998 -23.29579735 326.16482997 C-23.27767346 321.9288162 -23.30564678 317.69306826 -23.32763672 313.45710754 C-23.36319289 305.16413233 -23.35553424 296.87173664 -23.33233559 288.57873881 C-23.31426158 281.83838882 -23.31182116 275.09820114 -23.32052612 268.35783386 C-23.32175199 267.39817721 -23.32297785 266.43852057 -23.32424086 265.44978341 C-23.32679869 263.50020249 -23.3293924 261.55062161 -23.33202159 259.60104078 C-23.35482897 241.32371406 -23.32861271 223.04670845 -23.28561866 204.76943439 C-23.24987683 189.08978115 -23.25608517 173.41060173 -23.29296875 157.73095703 C-23.33578996 139.51865224 -23.35263175 121.30662882 -23.32807064 103.09428072 C-23.32552227 101.15190924 -23.32300731 99.20953771 -23.32052612 97.26716614 C-23.31867482 95.83367514 -23.31867482 95.83367514 -23.31678611 94.37122473 C-23.30988136 87.63968226 -23.32153196 80.9083184 -23.34036255 74.17680359 C-23.36280979 65.9721376 -23.35670873 57.76808381 -23.3141166 49.56348789 C-23.29310361 45.37789782 -23.2848345 41.19332804 -23.31130981 37.00774574 C-23.33519216 33.17409002 -23.32198645 29.34239765 -23.2794894 25.50891954 C-23.27057047 24.1241192 -23.27506202 22.73915216 -23.2944957 21.35445946 C-23.38346296 14.48731975 -23.31803644 9.61545387 -18.39775085 4.50205231 C-12.77191948 -0.38123089 -7.18729373 -0.1000011 0 0 Z " fill="#404040" transform="translate(292.25,51.6875)"/>
<path d="M0 0 C1.05277659 -0.01342814 1.05277659 -0.01342814 2.1268214 -0.02712756 C4.45682264 -0.04717979 6.78228989 -0.01050952 9.11203003 0.02641296 C10.79178735 0.02375523 12.4715422 0.01761443 14.15127563 0.00827026 C18.7023369 -0.00680943 23.25179183 0.02782949 27.80261087 0.07227731 C32.58889084 0.11131289 37.37514855 0.1070272 42.16156006 0.10824585 C50.21335849 0.11656362 58.264551 0.15512129 66.31613159 0.21391296 C75.57041936 0.28133166 84.82418783 0.31151942 94.07870686 0.31888801 C103.98599935 0.32682975 113.89311396 0.35772106 123.80032492 0.39768195 C126.62510328 0.4079124 129.44987179 0.41453085 132.27466202 0.42051125 C181.47075601 0.5476819 181.47075601 0.5476819 199.45529175 7.16972351 C200.30985962 7.47015564 201.16442749 7.77058777 202.04489136 8.0801239 C227.33235244 17.2483322 250.32840323 32.81125154 262.95529175 57.16972351 C270.54893461 73.40585494 270.87854647 89.63539886 270.77560425 107.25956726 C270.77186414 109.16626841 270.7690219 111.07297151 270.76702881 112.97967529 C270.75947079 117.94601449 270.73989167 122.91223269 270.71762085 127.87852478 C270.69335087 133.86516063 270.68434407 139.85183742 270.67271423 145.83850861 C270.65346108 154.88649717 270.61508432 163.93422138 270.58029175 172.98222351 C255.40029175 172.98222351 240.22029175 172.98222351 224.58029175 172.98222351 C224.52421753 164.48987976 224.52421753 164.48987976 224.4670105 155.82597351 C224.43668175 152.20745534 224.40550196 148.58898346 224.37130737 144.97050476 C224.31728803 139.24575846 224.266169 133.52110371 224.2338562 127.79618835 C224.20756244 123.17295633 224.16698308 118.55003751 224.11710548 113.92700195 C224.10061088 112.17629945 224.08898963 110.425543 224.08267784 108.67477417 C224.00361562 88.73275303 222.00850784 71.75144182 207.58810425 56.68534851 C199.60605642 49.20521444 189.92058253 44.04902262 179.64279175 40.48222351 C178.98923706 40.25107849 178.33568237 40.01993347 177.662323 39.78178406 C161.01447819 34.54954753 142.69131969 35.7010097 125.48654175 35.75175476 C122.8003817 35.75294896 120.11422952 35.75344989 117.42807007 35.75314331 C111.83734758 35.75407236 106.24668025 35.76266356 100.65597534 35.77641296 C94.19079489 35.792254 87.72567409 35.79740645 81.26047564 35.79667741 C75.01605435 35.79606844 68.77165241 35.80115402 62.52723694 35.80946922 C59.87653216 35.81265787 57.22582562 35.81462375 54.57511902 35.81536293 C50.89386954 35.81751697 47.21269677 35.82623685 43.53146362 35.83695984 C41.87975914 35.83628006 41.87975914 35.83628006 40.19468689 35.83558655 C38.70230751 35.84198402 38.70230751 35.84198402 37.17977905 35.84851074 C36.31048515 35.85018659 35.44119125 35.85186243 34.54555511 35.85358906 C32.57719688 35.76551413 32.57719688 35.76551413 31.58029175 36.98222351 C31.48334565 38.53564275 31.45657506 40.09348491 31.45724392 41.64992619 C31.45525287 42.66558535 31.45326182 43.68124451 31.45121044 44.72768122 C31.45412328 45.85703433 31.45703612 46.98638744 31.46003723 48.14996338 C31.45875559 49.93371562 31.45875559 49.93371562 31.45744807 51.75350326 C31.45607987 55.06912366 31.45922737 58.38468576 31.46422613 61.70029914 C31.4685273 65.27018542 31.46708444 68.84006975 31.46632385 72.40995789 C31.4657984 78.59996535 31.46894737 84.7899623 31.47456169 90.97996712 C31.48267389 99.92977688 31.48529162 108.87958153 31.48654968 117.82939457 C31.48874064 132.34835801 31.49540193 146.86731585 31.50485229 161.38627625 C31.51402527 175.49369783 31.52110666 189.6011179 31.52536011 203.70854187 C31.52562283 204.57749486 31.52588555 205.44644785 31.52615624 206.34173275 C31.52746124 210.70082684 31.52872495 215.05992094 31.52996814 219.41901505 C31.54034213 255.60675516 31.55796165 291.7944889 31.58029175 327.98222351 C48.19254495 328.02906891 64.80477652 328.06427355 81.41707993 328.08584785 C89.1314999 328.09613411 96.84587869 328.11014338 104.56027222 328.13310242 C111.28884131 328.15311787 118.01738055 328.16595919 124.74597859 328.1704005 C128.30444236 328.17299415 131.86282077 328.17903424 135.42125702 328.19368362 C139.40627227 328.20995411 143.39114177 328.21019801 147.37619019 328.20927429 C149.12084312 328.22006012 149.12084312 328.22006012 150.90074158 328.23106384 C170.38214694 328.18245714 191.89069622 322.94006177 206.14279175 308.79472351 C207.29394114 307.52870358 208.44054425 306.25851777 209.58029175 304.98222351 C210.44654175 304.21909851 211.31279175 303.45597351 212.20529175 302.66972351 C224.09246935 289.21844359 224.03112054 271.74100963 224.0920105 254.79862976 C224.1089012 253.0040162 224.12705714 251.20941416 224.14640808 249.41482544 C224.19343829 244.7444977 224.22354896 240.07421663 224.24984741 235.4037323 C224.28519734 229.77155164 224.34207304 224.13955018 224.39524078 218.50751495 C224.47320216 209.99910897 224.52422439 201.49092852 224.58029175 192.98222351 C239.76029175 192.98222351 254.94029175 192.98222351 270.58029175 192.98222351 C270.66050937 213.05445432 270.66050937 213.05445432 270.677948 221.70487976 C270.68983752 227.57454611 270.70380072 233.44414923 270.73117065 239.31376648 C270.75313024 244.05354499 270.76490834 248.79325554 270.77004623 253.53308105 C270.77370099 255.3284919 270.78083574 257.12389963 270.79175186 258.91928101 C270.95631438 287.14438643 265.83828652 308.78500094 245.95529175 329.98222351 C219.0964819 355.80601178 183.79009379 364.01780341 147.66940308 364.22270203 C145.98619873 364.23554 144.30299664 364.24867597 142.61979675 364.26208496 C127.35128636 364.37727489 112.0821613 364.43450231 96.81329823 364.47885227 C85.54169453 364.51215742 74.27088903 364.57192018 62.99962789 364.6663633 C55.05286085 364.73069222 47.10631174 364.76438684 39.15929431 364.7756018 C34.42031493 364.78315344 29.68230602 364.80426428 24.94361305 364.85862923 C20.49031946 364.90913191 16.038509 364.92165351 11.58497429 364.90537834 C9.95473903 364.90598094 8.3244409 364.92020512 6.69446564 364.94932556 C4.46056192 364.98714002 2.23206925 364.97500538 -0.00190735 364.95098877 C-1.24863315 364.95706429 -2.49535894 364.96313982 -3.77986431 364.96939945 C-9.26749416 363.48107845 -12.46184654 360.84382973 -15.41970825 355.98222351 C-16.55189395 351.29879236 -16.50278671 346.68937059 -16.43557739 341.90055847 C-16.44480375 340.46802409 -16.45751525 339.03550866 -16.47339535 337.60303259 C-16.50671918 333.67968735 -16.4903222 329.75790349 -16.4655056 325.83455348 C-16.44738171 321.59853971 -16.47535503 317.36279177 -16.49734497 313.12683105 C-16.53290115 304.83385585 -16.52524249 296.54146015 -16.50204384 288.24846232 C-16.48396983 281.50811233 -16.48152941 274.76792465 -16.49023438 268.02755737 C-16.49146024 267.06790073 -16.4926861 266.10824408 -16.49394912 265.11950693 C-16.49650694 263.169926 -16.49910065 261.22034512 -16.50172985 259.27076429 C-16.52453722 240.99343757 -16.49832096 222.71643196 -16.45532691 204.4391579 C-16.41958508 188.75950466 -16.42579342 173.08032524 -16.462677 157.40068054 C-16.50549821 139.18837575 -16.52234 120.97635233 -16.49777889 102.76400423 C-16.49523052 100.82163275 -16.49271556 98.87926122 -16.49023438 96.93688965 C-16.48838307 95.50339865 -16.48838307 95.50339865 -16.48649436 94.04094824 C-16.47958962 87.30940577 -16.49124021 80.57804191 -16.5100708 73.8465271 C-16.53251804 65.64186111 -16.52641698 57.43780733 -16.48382485 49.2332114 C-16.46281186 45.04762134 -16.45454275 40.86305155 -16.48101807 36.67746925 C-16.50490041 32.84381353 -16.4916947 29.01212116 -16.44919765 25.17864305 C-16.44027872 23.79384271 -16.44477027 22.40887567 -16.46420395 21.02418298 C-16.55102923 14.3223769 -16.48012095 9.28086664 -11.8199482 4.16350842 C-7.96718894 0.95560128 -5.08621208 -0.01418333 0 0 Z " fill="#404040" transform="translate(716.4197082519531,52.01777648925781)"/>
<path d="M0 0 C49.92912223 -0.13707755 99.85822042 -0.24316206 149.78749419 -0.30639198 C155.6912562 -0.3138956 161.59501784 -0.3216616 167.4987793 -0.32958984 C169.26166884 -0.33195064 169.26166884 -0.33195064 171.06017231 -0.33435912 C190.05304705 -0.36041833 209.04581206 -0.40769882 228.03862185 -0.46291678 C247.54839016 -0.51916174 267.05810128 -0.55238134 286.56794733 -0.56453097 C298.59230695 -0.5727356 310.61635635 -0.59858421 322.6406204 -0.6474988 C330.90262616 -0.67938251 339.16447314 -0.68876284 347.42653585 -0.68100826 C352.18289837 -0.67719115 356.93872145 -0.68275564 361.69498634 -0.71523285 C381.30344373 -0.84280258 399.2474319 -0.59363772 418 6 C407.12956586 16.87043414 383.16054579 14.73816241 368.86963229 14.75149091 C365.29186763 14.74467984 361.71429987 14.72085893 358.13661838 14.69639373 C353.31760461 14.67018223 348.49863055 14.67927216 343.67956543 14.68380737 C335.35517317 14.68693473 327.03106577 14.66830783 318.70674515 14.63438034 C306.67162001 14.58536096 294.63663088 14.56996553 282.60141675 14.56245239 C263.06932371 14.54936068 243.53738206 14.50954039 224.00537109 14.45263672 C205.04574331 14.39745846 186.08615684 14.35503901 167.12646484 14.32958984 C165.36982033 14.32722533 165.36982033 14.32722533 163.57768805 14.32481305 C157.70191819 14.31698213 151.82614805 14.30940005 145.9503777 14.30194163 C97.30014625 14.23986618 48.65008291 14.1338472 0 14 C0 9.38 0 4.76 0 0 Z " fill="#FF6A00" transform="translate(750,228)"/>
<path d="M0 0 C58.41 0 116.82 0 177 0 C177 4.62 177 9.24 177 14 C118.59 14 60.18 14 0 14 C0 9.38 0 4.76 0 0 Z " fill="#FF6A00" transform="translate(91,228)"/>
<path d="M0 0 C19.76795995 -0.23449205 39.53563438 -0.41037577 59.30470085 -0.51812172 C68.48567308 -0.56949929 77.66577693 -0.63943449 86.84619141 -0.75439453 C94.85591137 -0.85464622 102.86500198 -0.9187174 110.875332 -0.94088495 C115.10991056 -0.95382649 119.34269007 -0.98383056 123.57668686 -1.05730057 C157.47091543 -1.6236301 157.47091543 -1.6236301 172 10 C172 10.99 172 11.98 172 13 C152.08438327 13.23441087 132.16904946 13.41033657 112.25233555 13.51812172 C103.00295747 13.56951625 93.75444036 13.63948471 84.50561523 13.75439453 C76.43694131 13.85459339 68.36889133 13.91870515 60.29961246 13.94088495 C56.03321463 13.95383522 51.7686005 13.98389723 47.50277901 14.05730057 C14.64242842 14.60119923 14.64242842 14.60119923 2.46836853 5.44613647 C1.65380692 4.63891144 0.8392453 3.8316864 0 3 C0 2.01 0 1.02 0 0 Z " fill="#404040" transform="translate(70,212)"/>
<path d="M0 0 C4.27325767 0.05680391 8.54659055 0.06159065 12.82016754 0.07222867 C20.88792689 0.10004497 28.95457009 0.17368239 37.02184105 0.26437408 C46.21655812 0.36546529 55.41133249 0.41457807 64.6064682 0.45963299 C83.49848051 0.55334989 102.38945846 0.71134068 121.28061676 0.91254544 C121.16023445 2.65046811 121.16023445 2.65046811 120.28061676 4.91254544 C111.11562243 12.33410736 102.0518561 14.06502708 90.46274567 13.82074857 C88.93360769 13.81848542 87.40446105 13.81977142 85.87532806 13.82428861 C81.77013135 13.82656093 77.66684856 13.77991223 73.5620923 13.72369695 C69.25542742 13.67329376 64.94870663 13.66895652 60.6417923 13.65949368 C52.50679289 13.63474268 44.3726654 13.56925082 36.23804796 13.48869777 C26.96837411 13.39892008 17.69865609 13.3552031 8.42865491 13.31513429 C-10.62118334 13.23177243 -29.67021291 13.0912844 -48.71938324 12.91254544 C-48.71938324 11.92254544 -48.71938324 10.93254544 -48.71938324 9.91254544 C-34.67244631 -2.12813317 -17.37772396 -0.27045212 0 0 Z " fill="#404040" transform="translate(119.7193832397461,244.08745455741882)"/>
<path d="M0 0 C30.36 0 60.72 0 92 0 C92 4.62 92 9.24 92 14 C61.64 14 31.28 14 0 14 C0 9.38 0 4.76 0 0 Z " fill="#FF6A00" transform="translate(606,228)"/>
<path d="M0 0 C1.82555754 0.01867623 3.65116558 0.03289905 5.47679138 0.0428772 C10.25718181 0.080866 15.03448163 0.17891518 19.81365967 0.28991699 C24.70021763 0.39264201 29.58728043 0.43797632 34.47460938 0.48828125 C44.04562091 0.59518519 53.6143493 0.76561023 63.18359375 0.9765625 C63.18359375 5.5965625 63.18359375 10.2165625 63.18359375 14.9765625 C32.49359375 14.9765625 1.80359375 14.9765625 -29.81640625 14.9765625 C-22.55433932 0.45242864 -14.94868701 -0.45055308 0 0 Z " fill="#FF6A00" transform="translate(491.81640625,227.0234375)"/>
<path d="M0 0 C10.53545921 -0.25547753 21.07017562 -0.45062109 31.60810757 -0.56993389 C36.50214381 -0.62721651 41.39405319 -0.70482878 46.28686523 -0.82983398 C51.01384738 -0.94983912 55.73879186 -1.01522183 60.46718025 -1.04364967 C62.26590109 -1.06389152 64.0645169 -1.10342485 65.86236382 -1.16303062 C79.93738601 -1.61088255 79.93738601 -1.61088255 85.0942688 2.41659546 C87.38437241 5.17864196 89.23880805 7.8804129 91 11 C91.99 12.485 91.99 12.485 93 14 C62.31 14 31.62 14 0 14 C0 9.38 0 4.76 0 0 Z " fill="#FF6A00" transform="translate(319,228)"/>
</svg>
